<?xml version="1.0" encoding="UTF-8"?>
<svg id="Camada_1" data-name="Camada 1" xmlns="http://www.w3.org/2000/svg" xmlns:xlink="http://www.w3.org/1999/xlink" viewBox="0 0 160 160">
  <defs>
    <style>
      .cls-1 {
        fill: #fff;
      }

      .cls-2 {
        fill: #55e4a0;
      }

      .cls-3 {
        fill: url(#Gradiente_sem_nome_51);
      }
    </style>
    <linearGradient id="Gradiente_sem_nome_51" data-name="Gradiente sem nome 51" x1="37.82" y1="39.32" x2="116.69" y2="102.64" gradientUnits="userSpaceOnUse">
      <stop offset=".28" stop-color="#a71efb"/>
      <stop offset=".9" stop-color="#29a1ff"/>
    </linearGradient>
  </defs>
  <rect width="160" height="160"/>
  <path class="cls-3" d="M49.23,56.29l-1.34,7.63h25.08v.33l-1.69,9.63-6.23,35.33c-.95,5.41-6.11,9.03-11.53,8.07h0s7.66-43.4,7.66-43.4h-20.73c-2.31,0-4.06-2.09-3.66-4.37l.99-5.6,2.01-11.38h0c1.02-5.76,6.03-9.96,11.88-9.96h71.61c0,5.5-4.46,9.96-9.96,9.96h-59.62c-2.2,0-4.08,1.58-4.46,3.75Z"/>
  <path class="cls-1" d="M78.68,67.21h19.67v2.6c0,.9-.73,1.64-1.64,1.64h-19.67v-2.6c0-.9.73-1.64,1.64-1.64Z"/>
  <path class="cls-1" d="M75.36,87.55h19.67v2.6c0,.9-.73,1.64-1.64,1.64h-19.67v-2.6c0-.9.73-1.64,1.64-1.64Z"/>
  <path class="cls-1" d="M72.03,107.88h19.67v2.6c0,.9-.73,1.64-1.64,1.64h-19.67v-2.6c0-.9.73-1.64,1.64-1.64Z"/>
  <path class="cls-2" d="M117.2,61.74c.74.69.78,1.85.09,2.59l-7.1,7.61-1.29,1.38c-.56.6-1.53.56-2.03-.09l-1.15-1.47-3.21-4.12,1.41-1.11c.69-.54,1.7-.42,2.24.28l1.89,2.43,7.99-8.57,1.15,1.07Z"/>
  <path class="cls-2" d="M113.88,82.08c.74.69.78,1.85.09,2.59l-7.1,7.61-1.29,1.38c-.56.6-1.53.56-2.03-.09l-1.15-1.47-3.21-4.12,1.41-1.11c.69-.54,1.7-.42,2.24.28l1.89,2.43,7.99-8.57,1.15,1.07Z"/>
  <path class="cls-2" d="M110.56,102.42c.74.69.78,1.85.09,2.59l-7.1,7.61-1.29,1.38c-.56.6-1.53.56-2.03-.09l-1.15-1.47-3.21-4.12,1.41-1.11c.69-.54,1.7-.42,2.24.28l1.89,2.43,7.99-8.57,1.15,1.07Z"/>
</svg>
